inDegrees=yes
name=ik_S40_A07_T01
DataType=double
version=3
OpenSimVersion=4.3-2021-08-27-4bc7ad9
endheader
time	pelvis_tilt	pelvis_list	pelvis_rotation	pelvis_tx	pelvis_ty	pelvis_tz	hip_flexion_r	hip_adduction_r	hip_rotation_r	knee_angle_r	knee_angle_r_beta	ankle_angle_r	subtalar_angle_r	mtp_angle_r	hip_flexion_l	hip_adduction_l	hip_rotation_l	knee_angle_l	knee_angle_l_beta	ankle_angle_l	subtalar_angle_l	mtp_angle_l	lumbar_extension	lumbar_bending	lumbar_rotation	arm_flex_r	arm_add_r	arm_rot_r	elbow_flex_r	pro_sup_r	wrist_flex_r	wrist_dev_r	arm_flex_l	arm_add_l	arm_rot_l	elbow_flex_l	pro_sup_l	wrist_flex_l	wrist_dev_l
0	0	0	0	0	0.9399999999999999	0	0	0	0	0	0	0	0	0	0	0	0	0	0	0	0	0	0	0	0	0	0	0	0	89.99999999963507	0	0	0	0	0	0	89.99999999869995	0	0
0.02	-7.433462017306318	0.05325037997619093	30.81131330460261	0	0.9399999999999999	0	2.709299749509333	-1.280922368004799	-0.9125943100968436	4.194665622821595	0.07321072613845542	0	0	0	2.709299749509333	-1.280922368004799	-0.9125943100968436	4.194665622821595	0.07321072613845542	0	0	0	-1.587645910851289	-3.437689689252783	9.675973348400428	15.19352558249163	-2.661224736116458	-6.948345851882771	48.10407029477857	155.7704579882229	0	0	17.94766345267199	-0.5152373261080112	1.502291933854987	41.12716223176874	133.73669083566	0	0
0.04	-7.404770680711194	0.03442956999036122	30.82556451373221	0	0.9399999999999999	0	4.31441520212304	-2.158407158647315	-1.444320229594623	6.829896052921261	0.1192041736924409	0	0	0	4.31441520212304	-2.158407158647315	-1.444320229594623	6.829896052921261	0.1192041736924409	0	0	0	-1.636240836542374	-3.377878975234008	9.627175441428507	15.23805238183651	-2.674915842259099	-6.93174074461868	48.13834258701056	155.8592615175993	0	0	17.94896172501536	-0.4947493696885933	1.505037853402375	41.0985443091991	133.6700777131769	0	0
0.06	-7.366665543189597	0.01699537938789445	30.85282850078978	0	0.9399999999999999	0	4.938648780013839	-2.451501963934876	-1.657428867857376	7.574371222366163	0.1321977165985971	0	0	0	4.938648780013839	-2.451501963934876	-1.657428867857376	7.574371222366163	0.1321977165985971	0	0	0	-1.647316811047514	-3.3587465162871	9.589047059288188	15.21441133050431	-2.672564599130594	-6.911868752479584	48.13774308538671	155.7560422879457	0	0	17.94902002464595	-0.554294591867128	1.551641923799117	41.08718001283937	133.6220613178821	0	0
0.08	-7.349444226877115	0.01592784391658503	30.8549363032313	0	0.9399999999999999	0	5.13207871271047	-2.536546278362485	-1.729607354109105	7.724800730617667	0.1348232068097418	0	0	0	5.13207871271047	-2.536546278362485	-1.729607354109105	7.724800730617667	0.1348232068097418	0	0	0	-1.651609199628588	-3.340930556831651	9.565809012383287	15.18927597765018	-2.666794438761956	-6.883213395674663	48.162581733198	155.7854140425693	0	0	17.90840138832203	-0.5677391522851262	1.600080700990848	41.08532788667857	133.5365495887802	0	0
0.1	-7.360955061168613	0.01120107364567922	30.81845821831015	0	0.9399999999999999	0	5.137088298107901	-2.538959689869837	-1.731323820316732	7.730861120732109	0.1349289805711942	0	0	0	5.137088298107901	-2.538959689869837	-1.731323820316732	7.730861120732109	0.1349289805711942	0	0	0	-1.664282492583947	-3.338653604172415	9.568026449303572	15.2217028623937	-2.687119728977715	-6.81232598202234	48.16243212285902	155.7943231016506	0	0	17.87900336995796	-0.6018621972258451	1.700095013107089	41.08121467994999	133.488369532392	0	0
0.12	-7.361274996560394	0.006163267056423265	30.81476412664492	0	0.9399999999999999	0	5.229541280456171	-2.583973305373239	-1.763774059617954	7.83542448369544	0.1367539555318622	0	0	0	5.229541280456171	-2.583973305373239	-1.763774059617954	7.83542448369544	0.1367539555318622	0	0	0	-1.673151202854652	-3.333326422173886	9.544019677295401	15.23226485744408	-2.687361078293379	-6.739752697371707	48.16685269076994	155.7231499661061	0	0	17.88055569631697	-0.6068951595626413	1.69466222598714	41.07555393975652	133.3776724684222	0	0
0.14	-7.348312025798946	-0.01247631703398824	30.79594152578161	0	0.9399999999999999	0	5.415218775417542	-2.662121824053358	-1.829571580250481	8.002143388291691	0.1396637493423851	0	0	0	5.415218775417542	-2.662121824053358	-1.829571580250481	8.002143388291691	0.1396637493423851	0	0	0	-1.68857734063627	-3.33021548481421	9.509058313091776	15.23214791872968	-2.662830747039262	-6.620960089672785	48.16364349997259	155.7643498115364	0	0	17.8975358520799	-0.6760931687358938	1.769442928780606	40.87083444209333	132.9952399432485	0	0
0.16	-7.306263553839173	-0.04391711511676186	30.82010751872907	0	0.9399999999999999	0	6.543473861707828	-3.186010606487945	-2.21285866920396	9.336672012851563	0.1629556678030661	0	0	0	6.543473861707828	-3.186010606487945	-2.21285866920396	9.336672012851563	0.1629556678030661	0	0	0	-1.734668962141287	-3.290438731221104	9.446574792240472	15.21180110140831	-2.688932982005771	-6.549827567632856	48.19820439728823	155.6802409582388	0	0	17.90229146659465	-0.718350180610189	1.815290512277158	40.9143046713574	132.9790063740133	0	0
0.18	-7.282985987233705	-0.05308973858056618	30.81546947841306	0	0.9399999999999999	0	7.003158428322409	-3.388579319414592	-2.36724823742815	9.86482483619284	0.1721736735240753	0	0	0	7.003158428322409	-3.388579319414592	-2.36724823742815	9.86482483619284	0.1721736735240753	0	0	0	-1.750401441400651	-3.26342124892084	9.412296417040819	15.18299023673158	-2.722816721890697	-6.45507251889636	48.16821004119095	155.5764892715385	0	0	17.87079143306402	-0.7391677906132346	1.828300659115643	40.89726337288987	132.9402186676643	0	0
0.2	-7.272130366322503	-0.08361505152012991	30.82598900040119	0	0.9399999999999999	0	7.192909552889679	-3.46294933950349	-2.434156601860477	10.01995541997147	0.1748812129815534	0	0	0	7.192909552889679	-3.46294933950349	-2.434156601860477	10.01995541997147	0.1748812129815534	0	0	0	-1.775532189842658	-3.266685633654635	9.388262894265006	15.20572138738883	-2.690768606095917	-6.423193059241827	48.19647419943399	155.5474188233977	0	0	17.92403337806225	-0.7951960073367533	1.87106060419051	40.85185665543064	132.9321509608836	0	0
0.22	-7.257484750492146	-0.07888090021075431	30.81641834595826	0	0.9399999999999999	0	7.37871602545879	-3.527417123550017	-2.499133916994075	10.14912864310288	0.1771357110306097	0	0	0	7.37871602545879	-3.527417123550017	-2.499133916994075	10.14912864310288	0.1771357110306097	0	0	0	-1.780984488662256	-3.23906256690908	9.352545316061507	15.18094412188105	-2.698717920988193	-6.358603436078392	48.21813048519423	155.607727573103	0	0	17.89039024169726	-0.7856284784976023	1.864337274843227	40.89525831191571	132.8220808571712	0	0
0.24	-7.202225438363383	-0.1257954156059244	30.88713714212506	0	0.9399999999999999	0	8.495909165054181	-3.977004661051639	-2.871849653114857	11.3059034543921	0.1973252401917427	0	0	0	8.495909165054181	-3.977004661051639	-2.871849653114857	11.3059034543921	0.1973252401917427	0	0	0	-1.841707714353783	-3.182716731203179	9.280572101707877	15.24560892705526	-2.688267446106092	-6.343803198776128	48.17741993730944	155.5863467803669	0	0	17.92137554147438	-0.7948492376294756	1.907596144001511	40.8322112825132	132.8139767070844	0	0
0.26	-7.096126882974767	-0.1702752751305118	31.01778721929014	0	0.9399999999999999	0	9.972213283574694	-4.54460968780735	-3.358408461506865	12.78542531381118	0.2231477679938344	0	0	0	9.972213283574694	-4.54460968780735	-3.358408461506865	12.78542531381118	0.2231477679938344	0	0	0	-1.897704025912262	-3.098992984915056	9.15625407998316	15.23793847485837	-2.690728852963573	-6.36954361900044	48.17376446809675	155.4976467474674	0	0	17.88765320580179	-0.827388944402549	1.952372115664152	40.83848361893251	132.7841204717614	0	0
0.28	-7.097849691512446	-0.1707221201180462	31.04469704226274	0	0.9399999999999999	0	10.09972043543824	-4.583613253316465	-3.399746717788129	12.88490705971581	0.2248840520055025	0	0	0	10.09972043543824	-4.583613253316465	-3.399746717788129	12.88490705971581	0.2248840520055025	0	0	0	-1.912986716749044	-3.07799111926549	9.138065250613083	15.26284009257943	-2.705913904537993	-6.39524835528193	48.17805429518448	155.5826523532805	0	0	17.89464270357335	-0.8135985405892173	1.954322337184904	40.84761400327576	132.7535981917322	0	0
0.3	-7.03333448961291	-0.1990225236272464	31.21690143702707	0	0.9399999999999999	0	11.18085703441819	-4.955640098190466	-3.745148223752694	13.92463054546637	0.2430306501421621	0	0	0	11.18085703441819	-4.955640098190466	-3.745148223752694	13.92463054546637	0.2430306501421621	0	0	0	-1.968306961751782	-2.992359588824383	8.998645387506714	15.26019228761298	-2.725628205509559	-6.416579212665447	48.21156177845116	155.612839413625	0	0	17.92178847317824	-0.7745242822442283	1.99544906631715	40.8075746449214	132.7539296972276	0	0
0.32	-7.031008418531578	-0.1840389905460607	31.25564912900157	0	0.9399999999999999	0	11.18394250310571	-4.956915029448324	-3.746174132580068	13.92800037722403	0.2430894648015715	0	0	0	11.18394250310571	-4.956915029448324	-3.746174132580068	13.92800037722403	0.2430894648015715	0	0	0	-1.958770312513505	-2.980034544657593	8.986462755136291	15.26513267450636	-2.763741481190344	-6.263584921860311	48.24739720673419	155.5863515796438	0	0	17.89864422587253	-0.7634453700284765	2.077017453695277	40.80696632240125	132.7409234424241	0	0
0.34	-7.055648292443027	-0.1623043837282531	31.32525271176814	0	0.9399999999999999	0	11.19751367022723	-4.962652988202385	-3.750736482181579	13.94258684519921	0.2433440466939751	0	0	0	11.19751367022723	-4.962652988202385	-3.750736482181579	13.94258684519921	0.2433440466939751	0	0	0	-1.969743379352586	-2.94381328524392	8.894994744214832	15.08181569922001	-2.677359183694048	-5.50414964757638	48.70402195247181	155.2434324509636	0	0	17.89811636572507	-0.7030675436423376	2.027107183000089	40.83638644964102	132.5788044701159	0	0
0.36	-7.073304729154062	-0.1556460232221143	31.44552124056276	0	0.9399999999999999	0	11.2096028213734	-4.96775839049997	-3.754798817720384	13.95558344595477	0.2435708801687269	0	0	0	11.2096028213734	-4.96775839049997	-3.754798817720384	13.95558344595477	0.2435708801687269	0	0	0	-1.982614452525896	-2.922793559742105	8.760827548524796	14.87607457128093	-2.499091653241229	-4.376219825428899	49.58283015804152	154.7336400318419	0	0	17.91427138615513	-0.6776218220386561	2.009437041441452	40.86642836037108	132.5042497159145	0	0
0.3800000000000001	-7.10686954633035	-0.1422816110361057	31.58385765513031	0	0.9399999999999999	0	11.22316938023091	-4.973461714345055	-3.759348333784243	13.97020438191124	0.2438260636408905	0	0	0	11.22316938023091	-4.973461714345055	-3.759348333784243	13.97020438191124	0.2438260636408905	0	0	0	-2.0054595900908	-2.886149155431889	8.577567908583664	14.67994813065729	-2.716412847073847	-3.470830725500315	51.20790183733259	153.6755728278423	0	0	17.93264022537256	-0.6024264600544605	1.993748043925077	40.95344658476797	132.4167621436436	0	0
0.4000000000000001	-7.128306728192637	-0.1309037986684921	31.53977428517776	0	0.9399999999999999	0	11.24326161399914	-4.981876405857971	-3.766074759347731	13.99190154096052	0.2442047505046292	0	0	0	11.24326161399914	-4.981876405857971	-3.766074759347731	13.99190154096052	0.2442047505046292	0	0	0	-2.018703060741013	-2.86471562904033	8.608081226396822	14.65606876674609	-2.595527968561213	-3.414518529822005	53.1357035810165	151.9011928901422	0	0	17.94096995297721	-0.5785175878578115	2.006789497838241	41.03750546456975	132.353844164162	0	0
0.4200000000000001	-7.324557709943135	-0.192368945086408	31.76763921544815	0	0.9399999999999999	0	11.30044029290859	-5.005630044629281	-3.785159527323919	14.05375125313906	0.2452842316235557	0	0	0	11.30044029290859	-5.005630044629281	-3.785159527323919	14.05375125313906	0.2452842316235557	0	0	0	-2.233691805980651	-2.792452185450814	8.1594939626104	14.5621218131094	-3.087586806838373	-2.574128030633761	56.05009034015443	147.8397747497548	0	0	18.3424174137107	-0.5393184022281701	1.626566446374629	41.05143095364938	132.3540666726679	0	0
0.4400000000000001	-7.397844686178519	-0.2380411453128619	31.23405360096153	0	0.9399999999999999	0	11.36553656606172	-5.032874865936936	-3.806971924307612	14.12368601196851	0.2465048234267178	0	0	0	11.36553656606172	-5.032874865936936	-3.806971924307612	14.12368601196851	0.2465048234267178	0	0	0	-2.31794157745712	-2.802077904053367	8.645544709229505	14.42680314525529	-5.466922536259369	-3.387490335582107	60.06384255461683	142.6741647429111	0	0	18.47658901227574	-0.6275695982732877	1.256011166977963	41.15341941252174	132.3597633738418	0	0
